<?xml version="1.0" encoding="UTF-8" standalone="no"?>
<!DOCTYPE svg PUBLIC "-//W3C//DTD SVG 1.1//EN"
 "http://www.w3.org/Graphics/SVG/1.1/DTD/svg11.dtd">
<!-- Generated by graphviz version 2.43.0 (0)
 -->
<!-- Title: %3 Pages: 1 -->
<svg width="865pt" height="388pt"
 viewBox="0.00 0.00 865.00 388.00" xmlns="http://www.w3.org/2000/svg" xmlns:xlink="http://www.w3.org/1999/xlink">
<g id="graph0" class="graph" transform="scale(1 1) rotate(0) translate(4 384)">
<title>%3</title>
<polygon fill="white" stroke="transparent" points="-4,4 -4,-384 861,-384 861,4 -4,4"/>
<text text-anchor="start" x="151.5" y="-11.8" font-family="Arial" font-size="34.00">phpls&#45;rs &#45; PHP Parser &#45; Components</text>
<g id="clust1" class="cluster">
<title>cluster_4</title>
<polygon fill="none" stroke="#444444" points="8,-64 8,-372 849,-372 849,-64 8,-64"/>
<text text-anchor="start" x="365" y="-92.8" font-family="Arial" font-size="24.00" fill="#444444">PHP Parser</text>
<text text-anchor="start" x="382" y="-72.8" font-family="Arial" font-size="19.00" fill="#444444">[Container]</text>
</g>
<!-- 5 -->
<g id="5" class="node">
<title>5</title>
<polygon fill="#85bbf0" stroke="#5d82a8" points="824.5,-347 481.5,-347 481.5,-164 824.5,-164 824.5,-347"/>
<text text-anchor="start" x="539.5" y="-298.8" font-family="Arial" font-size="34.00" fill="#000000">Token Scanner</text>
<text text-anchor="start" x="598.5" y="-276.8" font-family="Arial" font-size="19.00" fill="#000000">[Component]</text>
<text text-anchor="start" x="511.5" y="-239.8" font-family="Arial" font-size="24.00" fill="#000000">The token scanner turns a</text>
<text text-anchor="start" x="510.5" y="-215.8" font-family="Arial" font-size="24.00" fill="#000000">source file into a stream of</text>
<text text-anchor="start" x="614.5" y="-191.8" font-family="Arial" font-size="24.00" fill="#000000">Tokens</text>
</g>
<!-- 6 -->
<g id="6" class="node">
<title>6</title>
<polygon fill="#85bbf0" stroke="#5d82a8" points="409,-335 33,-335 33,-176 409,-176 409,-335"/>
<text text-anchor="start" x="171" y="-286.8" font-family="Arial" font-size="34.00" fill="#000000">Parser</text>
<text text-anchor="start" x="166.5" y="-264.8" font-family="Arial" font-size="19.00" fill="#000000">[Component]</text>
<text text-anchor="start" x="62" y="-227.8" font-family="Arial" font-size="24.00" fill="#000000">The actual parser that turns a</text>
<text text-anchor="start" x="65.5" y="-203.8" font-family="Arial" font-size="24.00" fill="#000000">stream of tokens into an AST</text>
</g>
</g>
</svg>
