<?xml version="1.0" encoding="UTF-8" standalone="no"?>
<!DOCTYPE svg PUBLIC "-//W3C//DTD SVG 1.1//EN"
 "http://www.w3.org/Graphics/SVG/1.1/DTD/svg11.dtd">
<!-- Generated by graphviz version 2.43.0 (0)
 -->
<!-- Title: %3 Pages: 1 -->
<svg width="470pt" height="793pt"
 viewBox="0.00 0.00 469.50 793.00" xmlns="http://www.w3.org/2000/svg" xmlns:xlink="http://www.w3.org/1999/xlink">
<g id="graph0" class="graph" transform="scale(1 1) rotate(0) translate(4 789)">
<title>%3</title>
<polygon fill="white" stroke="transparent" points="-4,4 -4,-789 465.5,-789 465.5,4 -4,4"/>
<text text-anchor="start" x="85.75" y="-11.8" font-family="Arial" font-size="34.00">System Landscape</text>
<!-- 1 -->
<g id="1" class="node">
<title>1</title>
<polygon fill="#08427b" stroke="#052e56" points="355.5,-785 27.5,-785 27.5,-620 355.5,-620 355.5,-785"/>
<text text-anchor="start" x="83" y="-736.8" font-family="Arial" font-size="34.00" fill="#ffffff">The developer</text>
<text text-anchor="start" x="75" y="-702.8" font-family="Arial" font-size="34.00" fill="#ffffff">using the editor</text>
<text text-anchor="start" x="56.5" y="-668.8" font-family="Arial" font-size="34.00" fill="#ffffff">that uses phpls&#45;rs</text>
<text text-anchor="start" x="156" y="-646.8" font-family="Arial" font-size="19.00" fill="#ffffff">[Person]</text>
</g>
<!-- 2 -->
<g id="2" class="node">
<title>2</title>
<polygon fill="#1168bd" stroke="#0b4884" points="383,-522 0,-522 0,-339 383,-339 383,-522"/>
<text text-anchor="start" x="147" y="-473.8" font-family="Arial" font-size="34.00" fill="#ffffff">Editor</text>
<text text-anchor="start" x="114.5" y="-451.8" font-family="Arial" font-size="19.00" fill="#ffffff">[Software System]</text>
<text text-anchor="start" x="90.5" y="-414.8" font-family="Arial" font-size="24.00" fill="#ffffff">Any text editor that</text>
<text text-anchor="start" x="29" y="-390.8" font-family="Arial" font-size="24.00" fill="#ffffff">implements a language server</text>
<text text-anchor="start" x="163" y="-366.8" font-family="Arial" font-size="24.00" fill="#ffffff">client</text>
</g>
<!-- 1&#45;&gt;2 -->
<g id="18" class="edge">
<title>1&#45;&gt;2</title>
<path fill="none" stroke="#707070" stroke-dasharray="5,2" d="M191.5,-619.76C191.5,-592.27 191.5,-561.27 191.5,-532.48"/>
<polygon fill="#707070" stroke="#707070" points="195,-532.4 191.5,-522.4 188,-532.4 195,-532.4"/>
<text text-anchor="start" x="191.5" y="-564.8" font-family="Arial" font-size="24.00" fill="#707070">Write and read code</text>
</g>
<!-- 3 -->
<g id="3" class="node">
<title>3</title>
<polygon fill="#1168bd" stroke="#0b4884" points="348.5,-215 34.5,-215 34.5,-56 348.5,-56 348.5,-215"/>
<text text-anchor="start" x="131" y="-166.8" font-family="Arial" font-size="34.00" fill="#ffffff">phpls&#45;rs</text>
<text text-anchor="start" x="114.5" y="-144.8" font-family="Arial" font-size="19.00" fill="#ffffff">[Software System]</text>
<text text-anchor="start" x="80" y="-107.8" font-family="Arial" font-size="24.00" fill="#ffffff">The language server</text>
<text text-anchor="start" x="63.5" y="-83.8" font-family="Arial" font-size="24.00" fill="#ffffff">implementation for PHP</text>
</g>
<!-- 2&#45;&gt;3 -->
<g id="19" class="edge">
<title>2&#45;&gt;3</title>
<path fill="none" stroke="#707070" stroke-dasharray="5,2" d="M191.5,-338.8C191.5,-302.85 191.5,-261.63 191.5,-225.82"/>
<polygon fill="#707070" stroke="#707070" points="195,-225.39 191.5,-215.39 188,-225.39 195,-225.39"/>
<text text-anchor="start" x="191.5" y="-283.8" font-family="Arial" font-size="24.00" fill="#707070">Get semantic information</text>
<text text-anchor="start" x="246" y="-257.8" font-family="Arial" font-size="24.00" fill="#707070">about the code</text>
</g>
</g>
</svg>
