<?xml version="1.0" encoding="UTF-8" standalone="no"?>
<!DOCTYPE svg PUBLIC "-//W3C//DTD SVG 1.1//EN"
 "http://www.w3.org/Graphics/SVG/1.1/DTD/svg11.dtd">
<!-- Generated by graphviz version 2.43.0 (0)
 -->
<!-- Title: %3 Pages: 1 -->
<svg width="1334pt" height="745pt"
 viewBox="0.00 0.00 1334.00 745.00" xmlns="http://www.w3.org/2000/svg" xmlns:xlink="http://www.w3.org/1999/xlink">
<g id="graph0" class="graph" transform="scale(1 1) rotate(0) translate(4 741)">
<title>%3</title>
<polygon fill="white" stroke="transparent" points="-4,4 -4,-741 1330,-741 1330,4 -4,4"/>
<text text-anchor="start" x="505" y="-11.8" font-family="Arial" font-size="34.00">phpls&#45;rs &#45; Containers</text>
<g id="clust1" class="cluster">
<title>cluster_3</title>
<polygon fill="none" stroke="#444444" points="8,-64 8,-729 1318,-729 1318,-64 8,-64"/>
<text text-anchor="start" x="619.5" y="-92.8" font-family="Arial" font-size="24.00" fill="#444444">phpls&#45;rs</text>
<text text-anchor="start" x="586" y="-72.8" font-family="Arial" font-size="19.00" fill="#444444">[Software System]</text>
</g>
<!-- 12 -->
<g id="12" class="node">
<title>12</title>
<polygon fill="#438dd5" stroke="#2e6295" points="820.5,-704 425.5,-704 425.5,-521 820.5,-521 820.5,-704"/>
<text text-anchor="start" x="556.5" y="-655.8" font-family="Arial" font-size="34.00" fill="#ffffff">Backend</text>
<text text-anchor="start" x="576.5" y="-633.8" font-family="Arial" font-size="19.00" fill="#ffffff">[Container]</text>
<text text-anchor="start" x="454.5" y="-596.8" font-family="Arial" font-size="24.00" fill="#ffffff">The backend contains handlers</text>
<text text-anchor="start" x="481.5" y="-572.8" font-family="Arial" font-size="24.00" fill="#ffffff">for the individual language</text>
<text text-anchor="start" x="541.5" y="-548.8" font-family="Arial" font-size="24.00" fill="#ffffff">server features</text>
</g>
<!-- 4 -->
<g id="4" class="node">
<title>4</title>
<polygon fill="#438dd5" stroke="#2e6295" points="383,-371 33,-371 33,-164 383,-164 383,-371"/>
<text text-anchor="start" x="118.5" y="-322.8" font-family="Arial" font-size="34.00" fill="#ffffff">PHP Parser</text>
<text text-anchor="start" x="161.5" y="-300.8" font-family="Arial" font-size="19.00" fill="#ffffff">[Container]</text>
<text text-anchor="start" x="62" y="-263.8" font-family="Arial" font-size="24.00" fill="#ffffff">The parser component that</text>
<text text-anchor="start" x="72.5" y="-239.8" font-family="Arial" font-size="24.00" fill="#ffffff">turns a source file into an</text>
<text text-anchor="start" x="62.5" y="-215.8" font-family="Arial" font-size="24.00" fill="#ffffff">AST. It contains of a parser</text>
<text text-anchor="start" x="128" y="-191.8" font-family="Arial" font-size="24.00" fill="#ffffff">and a scanner.</text>
</g>
<!-- 12&#45;&gt;4 -->
<g id="16" class="edge">
<title>12&#45;&gt;4</title>
<path fill="none" stroke="#707070" stroke-dasharray="5,2" d="M425.47,-528.65C403.35,-515.59 381.99,-501.03 363,-485 328.03,-455.47 296.92,-416.4 271.92,-379.58"/>
<polygon fill="#707070" stroke="#707070" points="274.83,-377.64 266.36,-371.27 269.01,-381.53 274.83,-377.64"/>
<text text-anchor="start" x="363" y="-452.8" font-family="Arial" font-size="24.00" fill="#707070">Turn source files into</text>
<text text-anchor="start" x="447" y="-426.8" font-family="Arial" font-size="24.00" fill="#707070">ASTs</text>
</g>
<!-- 7 -->
<g id="7" class="node">
<title>7</title>
<polygon fill="#438dd5" stroke="#2e6295" points="856.5,-359 455.5,-359 455.5,-176 856.5,-176 856.5,-359"/>
<text text-anchor="start" x="582" y="-310.8" font-family="Arial" font-size="34.00" fill="#ffffff">Formatter</text>
<text text-anchor="start" x="609.5" y="-288.8" font-family="Arial" font-size="19.00" fill="#ffffff">[Container]</text>
<text text-anchor="start" x="484.5" y="-251.8" font-family="Arial" font-size="24.00" fill="#ffffff">The formatter uses the AST and</text>
<text text-anchor="start" x="493" y="-227.8" font-family="Arial" font-size="24.00" fill="#ffffff">the token stream to reformat a</text>
<text text-anchor="start" x="565" y="-203.8" font-family="Arial" font-size="24.00" fill="#ffffff">given source file.</text>
</g>
<!-- 12&#45;&gt;7 -->
<g id="17" class="edge">
<title>12&#45;&gt;7</title>
<path fill="none" stroke="#707070" stroke-dasharray="5,2" d="M608.59,-520.98C605.16,-485.29 604.01,-444.05 610,-407 612.03,-394.44 615.03,-381.49 618.55,-368.77"/>
<polygon fill="#707070" stroke="#707070" points="621.93,-369.67 621.33,-359.1 615.2,-367.74 621.93,-369.67"/>
<text text-anchor="start" x="610" y="-452.8" font-family="Arial" font-size="24.00" fill="#707070">Turn ASTs (+ TokenStreams)</text>
<text text-anchor="start" x="636.5" y="-426.8" font-family="Arial" font-size="24.00" fill="#707070">back into source strings</text>
</g>
<!-- 8 -->
<g id="8" class="node">
<title>8</title>
<polygon fill="#438dd5" stroke="#2e6295" points="1293.5,-359 928.5,-359 928.5,-176 1293.5,-176 1293.5,-359"/>
<text text-anchor="start" x="1015.5" y="-310.8" font-family="Arial" font-size="34.00" fill="#ffffff">Environment</text>
<text text-anchor="start" x="1064.5" y="-288.8" font-family="Arial" font-size="19.00" fill="#ffffff">[Container]</text>
<text text-anchor="start" x="957.5" y="-251.8" font-family="Arial" font-size="24.00" fill="#ffffff">The environment is aware of</text>
<text text-anchor="start" x="962" y="-227.8" font-family="Arial" font-size="24.00" fill="#ffffff">the available symbols in the</text>
<text text-anchor="start" x="1051.5" y="-203.8" font-family="Arial" font-size="24.00" fill="#ffffff">code base.</text>
</g>
<!-- 12&#45;&gt;8 -->
<g id="15" class="edge">
<title>12&#45;&gt;8</title>
<path fill="none" stroke="#707070" stroke-dasharray="5,2" d="M820.72,-547.54C859.5,-530.41 898.5,-509.65 932,-485 975.64,-452.89 1015.12,-407.88 1045.82,-367.21"/>
<polygon fill="#707070" stroke="#707070" points="1048.67,-369.25 1051.84,-359.14 1043.06,-365.06 1048.67,-369.25"/>
<text text-anchor="start" x="1010" y="-465.8" font-family="Arial" font-size="24.00" fill="#707070">Retrieve information about</text>
<text text-anchor="start" x="1057.5" y="-439.8" font-family="Arial" font-size="24.00" fill="#707070">symbols and their</text>
<text text-anchor="start" x="1020.5" y="-413.8" font-family="Arial" font-size="24.00" fill="#707070">references to each other</text>
</g>
</g>
</svg>
