<?xml version="1.0" encoding="UTF-8" standalone="no"?>
<!DOCTYPE svg PUBLIC "-//W3C//DTD SVG 1.1//EN"
 "http://www.w3.org/Graphics/SVG/1.1/DTD/svg11.dtd">
<!-- Generated by graphviz version 2.43.0 (0)
 -->
<!-- Title: %3 Pages: 1 -->
<svg width="810pt" height="364pt"
 viewBox="0.00 0.00 810.00 364.00" xmlns="http://www.w3.org/2000/svg" xmlns:xlink="http://www.w3.org/1999/xlink">
<g id="graph0" class="graph" transform="scale(1 1) rotate(0) translate(4 360)">
<title>%3</title>
<polygon fill="white" stroke="transparent" points="-4,4 -4,-360 806,-360 806,4 -4,4"/>
<text text-anchor="start" x="147" y="-11.8" font-family="Arial" font-size="34.00">phpls&#45;rs &#45; Backend &#45; Components</text>
<g id="clust1" class="cluster">
<title>cluster_12</title>
<polygon fill="none" stroke="#444444" points="8,-64 8,-348 794,-348 794,-64 8,-64"/>
<text text-anchor="start" x="354" y="-92.8" font-family="Arial" font-size="24.00" fill="#444444">Backend</text>
<text text-anchor="start" x="354.5" y="-72.8" font-family="Arial" font-size="19.00" fill="#444444">[Container]</text>
</g>
<!-- 13 -->
<g id="13" class="node">
<title>13</title>
<polygon fill="#85bbf0" stroke="#5d82a8" points="769.5,-323 404.5,-323 404.5,-164 769.5,-164 769.5,-323"/>
<text text-anchor="start" x="480" y="-274.8" font-family="Arial" font-size="34.00" fill="#000000">source_to_ast</text>
<text text-anchor="start" x="532.5" y="-252.8" font-family="Arial" font-size="19.00" fill="#000000">[Component]</text>
<text text-anchor="start" x="433.5" y="-215.8" font-family="Arial" font-size="24.00" fill="#000000">Turns a source string into an</text>
<text text-anchor="start" x="563.5" y="-191.8" font-family="Arial" font-size="24.00" fill="#000000">AST</text>
</g>
<!-- 14 -->
<g id="14" class="node">
<title>14</title>
<polygon fill="#85bbf0" stroke="#5d82a8" points="333,-311 33,-311 33,-176 333,-176 333,-311"/>
<text text-anchor="start" x="122.5" y="-262.8" font-family="Arial" font-size="34.00" fill="#000000">initialize</text>
<text text-anchor="start" x="128.5" y="-240.8" font-family="Arial" font-size="19.00" fill="#000000">[Component]</text>
<text text-anchor="start" x="62" y="-203.8" font-family="Arial" font-size="24.00" fill="#000000">Initializes a workspace</text>
</g>
</g>
</svg>
