<?xml version="1.0" encoding="UTF-8" standalone="no"?>
<!DOCTYPE svg PUBLIC "-//W3C//DTD SVG 1.1//EN"
 "http://www.w3.org/Graphics/SVG/1.1/DTD/svg11.dtd">
<!-- Generated by graphviz version 2.43.0 (0)
 -->
<!-- Title: %3 Pages: 1 -->
<svg width="865pt" height="688pt"
 viewBox="0.00 0.00 865.00 688.00" xmlns="http://www.w3.org/2000/svg" xmlns:xlink="http://www.w3.org/1999/xlink">
<g id="graph0" class="graph" transform="scale(1 1) rotate(0) translate(4 684)">
<title>%3</title>
<polygon fill="white" stroke="transparent" points="-4,4 -4,-684 861,-684 861,4 -4,4"/>
<text text-anchor="start" x="257" y="-35.8" font-family="Arial" font-size="34.00">PHP Parser &#45; Dynamic</text>
<text text-anchor="start" x="128.5" y="-9.8" font-family="Arial" font-size="24.00">Shows how the parser returns an AST from a source file</text>
<g id="clust1" class="cluster">
<title>cluster_4</title>
<polygon fill="none" stroke="#444444" points="8,-88 8,-396 849,-396 849,-88 8,-88"/>
<text text-anchor="start" x="365" y="-116.8" font-family="Arial" font-size="24.00" fill="#444444">PHP Parser</text>
<text text-anchor="start" x="382" y="-96.8" font-family="Arial" font-size="19.00" fill="#444444">[Container]</text>
</g>
<!-- 13 -->
<g id="13" class="node">
<title>13</title>
<polygon fill="#85bbf0" stroke="#5d82a8" points="602.5,-680 237.5,-680 237.5,-521 602.5,-521 602.5,-680"/>
<text text-anchor="start" x="313" y="-631.8" font-family="Arial" font-size="34.00" fill="#000000">source_to_ast</text>
<text text-anchor="start" x="365.5" y="-609.8" font-family="Arial" font-size="19.00" fill="#000000">[Component]</text>
<text text-anchor="start" x="266.5" y="-572.8" font-family="Arial" font-size="24.00" fill="#000000">Turns a source string into an</text>
<text text-anchor="start" x="396.5" y="-548.8" font-family="Arial" font-size="24.00" fill="#000000">AST</text>
</g>
<!-- 5 -->
<g id="5" class="node">
<title>5</title>
<polygon fill="#85bbf0" stroke="#5d82a8" points="375.5,-371 32.5,-371 32.5,-188 375.5,-188 375.5,-371"/>
<text text-anchor="start" x="90.5" y="-322.8" font-family="Arial" font-size="34.00" fill="#000000">Token Scanner</text>
<text text-anchor="start" x="149.5" y="-300.8" font-family="Arial" font-size="19.00" fill="#000000">[Component]</text>
<text text-anchor="start" x="62.5" y="-263.8" font-family="Arial" font-size="24.00" fill="#000000">The token scanner turns a</text>
<text text-anchor="start" x="61.5" y="-239.8" font-family="Arial" font-size="24.00" fill="#000000">source file into a stream of</text>
<text text-anchor="start" x="165.5" y="-215.8" font-family="Arial" font-size="24.00" fill="#000000">Tokens</text>
</g>
<!-- 13&#45;&gt;5 -->
<g id="20" class="edge">
<title>13&#45;&gt;5</title>
<path fill="none" stroke="#707070" stroke-dasharray="5,2" d="M289.66,-520.68C277.81,-509.79 266.94,-497.87 258,-485 236.8,-454.46 223.92,-416.1 216.1,-380.87"/>
<polygon fill="#707070" stroke="#707070" points="219.51,-380.09 214.03,-371.03 212.66,-381.54 219.51,-380.09"/>
<text text-anchor="start" x="258" y="-465.8" font-family="Arial" font-size="24.00" fill="#707070">1. Calls to return a token</text>
<text text-anchor="start" x="275.5" y="-439.8" font-family="Arial" font-size="24.00" fill="#707070">stream from a source</text>
<text text-anchor="start" x="360.5" y="-413.8" font-family="Arial" font-size="24.00" fill="#707070">string</text>
</g>
<!-- 6 -->
<g id="6" class="node">
<title>6</title>
<polygon fill="#85bbf0" stroke="#5d82a8" points="824,-359 448,-359 448,-200 824,-200 824,-359"/>
<text text-anchor="start" x="586" y="-310.8" font-family="Arial" font-size="34.00" fill="#000000">Parser</text>
<text text-anchor="start" x="581.5" y="-288.8" font-family="Arial" font-size="19.00" fill="#000000">[Component]</text>
<text text-anchor="start" x="477" y="-251.8" font-family="Arial" font-size="24.00" fill="#000000">The actual parser that turns a</text>
<text text-anchor="start" x="480.5" y="-227.8" font-family="Arial" font-size="24.00" fill="#000000">stream of tokens into an AST</text>
</g>
<!-- 13&#45;&gt;6 -->
<g id="23" class="edge">
<title>13&#45;&gt;6</title>
<path fill="none" stroke="#707070" stroke-dasharray="5,2" d="M507.44,-520.76C518.04,-509.3 528.2,-497.23 537,-485 562.59,-449.43 584.61,-406.22 601.34,-368.7"/>
<polygon fill="#707070" stroke="#707070" points="604.66,-369.86 605.48,-359.3 598.25,-367.04 604.66,-369.86"/>
<text text-anchor="start" x="581" y="-452.8" font-family="Arial" font-size="24.00" fill="#707070">2. Calls to return an AST</text>
<text text-anchor="start" x="604.5" y="-426.8" font-family="Arial" font-size="24.00" fill="#707070">from a token stream</text>
</g>
</g>
</svg>
