<?xml version="1.0" encoding="UTF-8" standalone="no"?>
<!DOCTYPE svg PUBLIC "-//W3C//DTD SVG 1.1//EN"
 "http://www.w3.org/Graphics/SVG/1.1/DTD/svg11.dtd">
<!-- Generated by graphviz version 2.43.0 (0)
 -->
<!-- Title: %3 Pages: 1 -->
<svg width="796pt" height="659pt"
 viewBox="0.00 0.00 795.50 659.00" xmlns="http://www.w3.org/2000/svg" xmlns:xlink="http://www.w3.org/1999/xlink">
<g id="graph0" class="graph" transform="scale(1 1) rotate(0) translate(4 655)">
<title>%3</title>
<polygon fill="white" stroke="transparent" points="-4,4 -4,-655 791.5,-655 791.5,4 -4,4"/>
<text text-anchor="start" x="245.75" y="-35.8" font-family="Arial" font-size="34.00">Backend &#45; Dynamic</text>
<text text-anchor="start" x="252.25" y="-9.8" font-family="Arial" font-size="24.00">Boots the language server</text>
<g id="clust1" class="cluster">
<title>cluster_12</title>
<polygon fill="none" stroke="#444444" points="215,-383 215,-643 565,-643 565,-383 215,-383"/>
<text text-anchor="start" x="343" y="-411.8" font-family="Arial" font-size="24.00" fill="#444444">Backend</text>
<text text-anchor="start" x="343.5" y="-391.8" font-family="Arial" font-size="19.00" fill="#444444">[Container]</text>
</g>
<!-- 4 -->
<g id="4" class="node">
<title>4</title>
<polygon fill="#438dd5" stroke="#2e6295" points="350,-287 0,-287 0,-80 350,-80 350,-287"/>
<text text-anchor="start" x="85.5" y="-238.8" font-family="Arial" font-size="34.00" fill="#ffffff">PHP Parser</text>
<text text-anchor="start" x="128.5" y="-216.8" font-family="Arial" font-size="19.00" fill="#ffffff">[Container]</text>
<text text-anchor="start" x="29" y="-179.8" font-family="Arial" font-size="24.00" fill="#ffffff">The parser component that</text>
<text text-anchor="start" x="39.5" y="-155.8" font-family="Arial" font-size="24.00" fill="#ffffff">turns a source file into an</text>
<text text-anchor="start" x="29.5" y="-131.8" font-family="Arial" font-size="24.00" fill="#ffffff">AST. It contains of a parser</text>
<text text-anchor="start" x="95" y="-107.8" font-family="Arial" font-size="24.00" fill="#ffffff">and a scanner.</text>
</g>
<!-- 8 -->
<g id="8" class="node">
<title>8</title>
<polygon fill="#438dd5" stroke="#2e6295" points="787.5,-275 422.5,-275 422.5,-92 787.5,-92 787.5,-275"/>
<text text-anchor="start" x="509.5" y="-226.8" font-family="Arial" font-size="34.00" fill="#ffffff">Environment</text>
<text text-anchor="start" x="558.5" y="-204.8" font-family="Arial" font-size="19.00" fill="#ffffff">[Container]</text>
<text text-anchor="start" x="451.5" y="-167.8" font-family="Arial" font-size="24.00" fill="#ffffff">The environment is aware of</text>
<text text-anchor="start" x="456" y="-143.8" font-family="Arial" font-size="24.00" fill="#ffffff">the available symbols in the</text>
<text text-anchor="start" x="545.5" y="-119.8" font-family="Arial" font-size="24.00" fill="#ffffff">code base.</text>
</g>
<!-- 14 -->
<g id="14" class="node">
<title>14</title>
<polygon fill="#85bbf0" stroke="#5d82a8" points="540,-618 240,-618 240,-483 540,-483 540,-618"/>
<text text-anchor="start" x="329.5" y="-569.8" font-family="Arial" font-size="34.00" fill="#000000">initialize</text>
<text text-anchor="start" x="335.5" y="-547.8" font-family="Arial" font-size="19.00" fill="#000000">[Component]</text>
<text text-anchor="start" x="269" y="-510.8" font-family="Arial" font-size="24.00" fill="#000000">Initializes a workspace</text>
</g>
<!-- 14&#45;&gt;4 -->
<g id="25" class="edge">
<title>14&#45;&gt;4</title>
<path fill="none" stroke="#707070" stroke-dasharray="5,2" d="M347.28,-482.87C326.83,-450.54 302.24,-410.99 281,-375 266.05,-349.67 250.41,-322.16 235.88,-296.13"/>
<polygon fill="#707070" stroke="#707070" points="238.92,-294.4 230.99,-287.37 232.8,-297.81 238.92,-294.4"/>
<text text-anchor="start" x="281" y="-355.8" font-family="Arial" font-size="24.00" fill="#707070">1. Instructs to parse a</text>
<text text-anchor="start" x="282" y="-329.8" font-family="Arial" font-size="24.00" fill="#707070">file and return its AST</text>
</g>
<!-- 14&#45;&gt;8 -->
<g id="26" class="edge">
<title>14&#45;&gt;8</title>
<path fill="none" stroke="#707070" stroke-dasharray="5,2" d="M450.74,-482.82C477.1,-451.62 506.92,-413.02 529,-375 545.3,-346.94 559.62,-314.71 571.31,-284.84"/>
<polygon fill="#707070" stroke="#707070" points="574.69,-285.83 575.02,-275.24 568.15,-283.31 574.69,-285.83"/>
<text text-anchor="start" x="555" y="-355.8" font-family="Arial" font-size="24.00" fill="#707070">2. Instructs to find</text>
<text text-anchor="start" x="606.5" y="-329.8" font-family="Arial" font-size="24.00" fill="#707070">symbols</text>
</g>
</g>
</svg>
