<?xml version="1.0" encoding="UTF-8" standalone="no"?>
<!DOCTYPE svg PUBLIC "-//W3C//DTD SVG 1.1//EN"
 "http://www.w3.org/Graphics/SVG/1.1/DTD/svg11.dtd">
<!-- Generated by graphviz version 2.43.0 (0)
 -->
<!-- Title: %3 Pages: 1 -->
<svg width="1444pt" height="412pt"
 viewBox="0.00 0.00 1444.00 412.00" xmlns="http://www.w3.org/2000/svg" xmlns:xlink="http://www.w3.org/1999/xlink">
<g id="graph0" class="graph" transform="scale(1 1) rotate(0) translate(4 408)">
<title>%3</title>
<polygon fill="white" stroke="transparent" points="-4,4 -4,-408 1440,-408 1440,4 -4,4"/>
<text text-anchor="start" x="435" y="-11.8" font-family="Arial" font-size="34.00">phpls&#45;rs &#45; Environment &#45; Components</text>
<g id="clust1" class="cluster">
<title>cluster_8</title>
<polygon fill="none" stroke="#444444" points="8,-64 8,-396 1428,-396 1428,-64 8,-64"/>
<text text-anchor="start" x="650" y="-92.8" font-family="Arial" font-size="24.00" fill="#444444">Environment</text>
<text text-anchor="start" x="671.5" y="-72.8" font-family="Arial" font-size="19.00" fill="#444444">[Container]</text>
</g>
<!-- 10 -->
<g id="10" class="node">
<title>10</title>
<polygon fill="#85bbf0" stroke="#5d82a8" points="1403,-359 1011,-359 1011,-176 1403,-176 1403,-359"/>
<text text-anchor="start" x="1053" y="-310.8" font-family="Arial" font-size="34.00" fill="#000000">NameResolveVisitor</text>
<text text-anchor="start" x="1152.5" y="-288.8" font-family="Arial" font-size="19.00" fill="#000000">[Component]</text>
<text text-anchor="start" x="1073" y="-251.8" font-family="Arial" font-size="24.00" fill="#000000">The NameResolveVisitor</text>
<text text-anchor="start" x="1040" y="-227.8" font-family="Arial" font-size="24.00" fill="#000000">resolves references to symbols</text>
<text text-anchor="start" x="1043.5" y="-203.8" font-family="Arial" font-size="24.00" fill="#000000">by walking the AST recursively</text>
</g>
<!-- 11 -->
<g id="11" class="node">
<title>11</title>
<polygon fill="#85bbf0" stroke="#5d82a8" points="938.5,-371 503.5,-371 503.5,-164 938.5,-164 938.5,-371"/>
<text text-anchor="start" x="532.5" y="-322.8" font-family="Arial" font-size="34.00" fill="#000000">WorkspaceSymbolVisitor</text>
<text text-anchor="start" x="666.5" y="-300.8" font-family="Arial" font-size="19.00" fill="#000000">[Component]</text>
<text text-anchor="start" x="562.5" y="-263.8" font-family="Arial" font-size="24.00" fill="#000000">The WorkspaceSymbolVisitor</text>
<text text-anchor="start" x="567" y="-239.8" font-family="Arial" font-size="24.00" fill="#000000">walks the AST recursivly and</text>
<text text-anchor="start" x="588.5" y="-215.8" font-family="Arial" font-size="24.00" fill="#000000">collects symbols that are</text>
<text text-anchor="start" x="554" y="-191.8" font-family="Arial" font-size="24.00" fill="#000000">relevant from an outside&#45;scope</text>
</g>
<!-- 9 -->
<g id="9" class="node">
<title>9</title>
<polygon fill="#85bbf0" stroke="#5d82a8" points="431,-359 33,-359 33,-176 431,-176 431,-359"/>
<text text-anchor="start" x="119" y="-310.8" font-family="Arial" font-size="34.00" fill="#000000">NameResolver</text>
<text text-anchor="start" x="177.5" y="-288.8" font-family="Arial" font-size="19.00" fill="#000000">[Component]</text>
<text text-anchor="start" x="62" y="-251.8" font-family="Arial" font-size="24.00" fill="#000000">The NameResolver resolves an</text>
<text text-anchor="start" x="111" y="-227.8" font-family="Arial" font-size="24.00" fill="#000000">individual symbol to its</text>
<text text-anchor="start" x="183.5" y="-203.8" font-family="Arial" font-size="24.00" fill="#000000">definition</text>
</g>
</g>
</svg>
